# xmcd CD database file
#
# Track frame offsets:
#	150
#	14981
#	27901
#	44278
#	57002
#	69785
#	81690
#	97197
#	110406
#	128056
#	141120
#
# Disc length: 2101 seconds
#
# Revision: 1
# Processed by: cddbd v1.5.2PL0 Copyright (c) Steve Scherf et al.
# Submitted via: CDex 1.78
#
DISCID=9a08330b
DTITLE=Erich McMann - Trucker Country
DYEAR=2015
DGENRE=Country
TTITLE0=Trucker Country
TTITLE1=Keep On Truckin'
TTITLE2=Big Rig A Rollin'
TTITLE3=Guilty As Pleaded
TTITLE4=The Trucker Blues
TTITLE5=Mona
TTITLE6=Make It Tonight
TTITLE7=The Black Ice Boogie
TTITLE8=The Key To My Heart
TTITLE9=Truckin' Daddy
TTITLE10=She's Gonna Miss Her Man
EXTD=YEAR: 2015
EXTT0=
EXTT1=
EXTT2=
EXTT3=
EXTT4=
EXTT5=
EXTT6=
EXTT7=
EXTT8=
EXTT9=
EXTT10=
PLAYORDER=
